<svg xmlns="http://www.w3.org/2000/svg" viewBox="0 0 128 128" role="img" aria-label="CareerLink">
  <defs>
    <linearGradient id="careerlinkGradient" x1="14" y1="10" x2="114" y2="118" gradientUnits="userSpaceOnUse">
      <stop offset="0" stop-color="#2563eb"/>
      <stop offset="1" stop-color="#0f766e"/>
    </linearGradient>
    <linearGradient id="careerlinkAccent" x1="24" y1="24" x2="94" y2="100" gradientUnits="userSpaceOnUse">
      <stop offset="0" stop-color="#ffffff" stop-opacity="0.95"/>
      <stop offset="1" stop-color="#dbeafe" stop-opacity="0.92"/>
    </linearGradient>
  </defs>
  <rect x="10" y="10" width="108" height="108" rx="28" fill="url(#careerlinkGradient)"/>
  <path d="M38 40h40c8.8 0 16 7.2 16 16s-7.2 16-16 16H54v18H38V40Zm16 16h22c2.2 0 4 1.8 4 4s-1.8 4-4 4H54v-8Z" fill="url(#careerlinkAccent)"/>
  <path d="M36 96c16.5 0 24.5-10 31.3-19.2 6.1-8.1 11.4-15.8 22.7-15.8h2v12h-2c-4.8 0-7.2 2.8-13 10.5C69.4 93.3 58.9 108 36 108V96Z" fill="#bfdbfe"/>
</svg>
